<svg width="652" height="580" viewBox="0 0 652 580" fill="none" xmlns="http://www.w3.org/2000/svg">
<path d="M0 40C0 21.1438 0 11.7157 5.85786 5.85786C11.7157 0 21.1438 0 40 0H570.429C586.028 0 593.827 0 599.343 4.49126C604.858 8.98251 606.439 16.6203 609.599 31.8958L616.051 63.0818C639.444 176.145 651.14 232.676 651.14 290C651.14 347.324 639.444 403.855 616.051 516.918L609.599 548.104C606.439 563.38 604.858 571.017 599.343 575.509C593.827 580 586.028 580 570.429 580H40C21.1438 580 11.7157 580 5.85786 574.142C0 568.284 0 558.856 0 540V40Z" fill="#14141A"/>
</svg>
