<svg width="845" height="580" viewBox="0 0 845 580" fill="none" xmlns="http://www.w3.org/2000/svg">
<path d="M0 540V40C0 21.1438 0 11.7157 5.85786 5.85786C11.7157 0 21.1438 0 40 0H747H800.877C823.589 0 834.945 0 840.947 7.37151C846.95 14.743 844.649 25.8634 840.047 48.1042L836.949 63.0818C813.556 176.145 801.86 232.676 801.86 290C801.86 347.324 813.556 403.855 836.949 516.918L840.047 531.896C844.649 554.137 846.95 565.257 840.947 572.628C834.945 580 823.589 580 800.877 580H747H40C21.1438 580 11.7157 580 5.85786 574.142C0 568.284 0 558.856 0 540Z" fill="#15151A"/>
</svg>
