<svg width="33" height="32" viewBox="0 0 33 32" fill="none" xmlns="http://www.w3.org/2000/svg">
<g id="Google Icon">
<g id="Vector">
<path fill-rule="evenodd" clip-rule="evenodd" d="M32.5001 16.3637C32.5001 15.2292 32.3962 14.1383 32.2032 13.091H16.8265V19.2801H25.6132C25.2347 21.2801 24.0845 22.9747 22.3553 24.1092V28.1237H27.6318C30.719 25.3383 32.5001 21.2365 32.5001 16.3637Z" fill="#4285F4"/>
<path fill-rule="evenodd" clip-rule="evenodd" d="M16.8266 32C21.2348 32 24.9305 30.5674 27.6318 28.1237L22.3553 24.1092C20.8934 25.0692 19.0232 25.6364 16.8266 25.6364C12.5742 25.6364 8.97498 22.8218 7.69112 19.04H2.23656V23.1855C4.92302 28.4145 10.4444 32 16.8266 32Z" fill="#34A853"/>
<path fill-rule="evenodd" clip-rule="evenodd" d="M7.69112 19.04C7.36459 18.08 7.17905 17.0546 7.17905 16.0001C7.17905 14.9455 7.36458 13.9201 7.69111 12.9601V8.81463H2.23655C1.1308 10.9746 0.5 13.4183 0.5 16.0001C0.5 18.5819 1.13081 21.0254 2.23656 23.1855L7.69112 19.04Z" fill="#FBBC05"/>
<path fill-rule="evenodd" clip-rule="evenodd" d="M16.8266 6.36364C19.2236 6.36364 21.3758 7.17091 23.0678 8.75637L27.7505 4.16728C24.9231 1.58546 21.2273 0 16.8266 0C10.4444 0 4.92302 3.58554 2.23655 8.81463L7.69111 12.9601C8.97497 9.17827 12.5742 6.36364 16.8266 6.36364Z" fill="#EA4335"/>
</g>
</g>
</svg>
